<svg width="278" height="28" viewBox="0 0 278 28" fill="none" xmlns="http://www.w3.org/2000/svg">
  <path d="M3.78945 12.3047H23.3073C24.0721 12.3047 24.4894 11.7254 24.4894 11.0767V9.75582C24.4894 8.52778 23.8868 7.92506 22.4033 7.92506H3.78945L0 7.93056L3.79119 4.63467H22.4033C25.9729 4.63467 27.781 6.16371 27.781 9.19987V10.8217C27.781 12.0497 27.155 13.0923 26.1586 13.6489C27.2942 14.0427 27.9896 14.9924 27.9896 16.1978V18.6071C27.9896 21.666 26.1121 23.1724 22.4033 23.1724L0.367069 23.1719V15.2719L3.78945 12.3047ZM3.78945 15.2707V19.8819H21.8468C23.539 19.8819 24.5358 19.5342 24.5358 18.1673V16.3365C24.5358 15.7338 24.1185 15.2707 23.3073 15.2707L3.78945 15.2707Z" fill="black"/>
  <path d="M64.454 18.6539C64.454 21.666 62.5995 23.1724 58.8442 23.1724H42.5716C38.8163 23.1724 36.9618 21.666 36.9618 18.6072V4.63467H40.4157V18.2602C40.4157 19.3487 41.1344 19.882 42.5716 19.882H58.8442C60.2814 19.882 61.0002 19.3721 61.0002 18.3062V4.63467H64.454V18.6539ZM49.1782 3.10558H46.7906V0H49.1782V3.10558ZM54.6023 3.10558H52.2381V0H54.6023V3.10558Z" fill="black"/>
  <path d="M77.8071 12.8146H96.8153C98.1366 12.8146 98.7855 12.2353 98.7855 11.1V9.57024C98.7855 8.481 98.0902 7.92506 96.6994 7.92506H74.3533V4.63467H96.6994C100.292 4.63467 102.077 6.16371 102.077 9.19987V10.8677C102.077 13.9959 100.292 15.5951 96.6994 15.5951H95.0072L102.819 23.1724H98.0672L90.58 15.7573H77.8072V23.1724H74.3533V12.8068L77.8071 12.8146Z" fill="black"/>
  <path d="M138.008 7.92506H117.377C116.033 7.92506 115.384 8.38822 115.384 9.29189V10.8451C115.384 11.7488 116.033 12.1885 117.377 12.1885H133.21C136.803 12.1885 138.611 13.6256 138.611 16.4754V18.8395C138.611 21.7127 136.803 23.1724 133.21 23.1724H112.556V19.882H133.21C134.508 19.882 135.18 19.4189 135.18 18.4918V16.8926C135.18 15.9655 134.508 15.479 133.21 15.479H117.377C113.738 15.479 111.93 14.1815 111.93 11.6092V8.94493C111.93 6.07169 113.738 4.63467 117.377 4.63467H138.008V7.92506Z" fill="black"/>
  <path d="M171.136 7.92506H159.962V23.1724H156.531V7.92506H145.15V4.63467H171.136V7.92506Z" fill="black"/>
  <path d="M204.817 23.1724H200.993C198.373 23.1724 196.774 22.3381 195.197 20.5541L185.531 9.59361C184.256 8.13399 183.861 7.92501 182.146 7.92501H181.706V23.1724H178.345V4.63462H182.146C184.673 4.63462 186.203 5.3995 187.756 7.16012L197.561 18.2134C198.975 19.8125 199.231 19.882 200.993 19.882H201.433V4.63462H204.817V23.1724Z" fill="black"/>
  <path d="M239.473 7.92506H219.353C217.939 7.92506 217.197 8.55041 217.197 9.70903V12.1885H239.381V15.4789H217.197V18.098C217.197 19.3027 217.915 19.882 219.353 19.882H239.543V23.1724H219.353C215.597 23.1724 213.743 21.666 213.743 18.6071V9.19987C213.743 6.16371 215.597 4.63467 219.353 4.63467H239.473V7.92506Z" fill="black"/>
  <path d="M271.996 12.8146C273.318 12.8146 273.967 12.2353 273.967 11.1V9.57024C273.967 8.481 273.272 7.92506 271.881 7.92506H252.989L249.535 7.93313V4.63462H271.881C275.474 4.63462 277.258 6.16366 277.258 9.19983V10.8677C277.258 13.9959 275.474 15.5951 271.881 15.5951H270.188L278 23.1724H273.248L265.761 15.7573H252.989V23.1724H249.535V12.8148L271.996 12.8146Z" fill="black"/>
</svg>
