<?xml version="1.0" encoding="UTF-8"?><svg id="uuid-ec8163b9-5fff-4bfc-9802-8dc23d503578" xmlns="http://www.w3.org/2000/svg" width="125mm" height="21mm" viewBox="0 0 354.33 59.53"><path d="m63.75,21.26c.78-5.61-.89-10.73-4.09-14.4-3.86-4.49-10.35-6.86-18.75-6.86h-22.83L3.77.05c.36,1.32,1.27,4.06,3.06,6.61,2.64,3.77,6.14,5.74,10.4,5.74h1.11s19.46-.06,19.46-.06c3.36,0,5.98,1.04,7.81,3.11,1.9,2.26,2.66,5.46,2.15,9.03-1.27,8.76-9.48,21.73-22.34,21.73h-6.94l8.82-24.64c-.33-.01-.68-.02-1.04-.02-3.98,0-13.56.91-16.58,9.3l-.48,1.34L0,58.6h21.13c25.84,0,40.02-18.75,42.62-37.34m29.35,9.83c-.47,3.27-3.92,4.86-10.53,4.86-1.17,0-2.39,0-4.03-.16l-.32-.03.12-.29c2.01-5.01,5.78-7.76,10.62-7.76,1.78,0,2.96.36,3.61,1.1.49.56.66,1.31.53,2.29m14.63-1.92c.36-2.55-.22-4.71-1.72-6.44-2.53-2.91-7.47-4.39-14.67-4.39-15.11,0-27.02,9.79-28.95,23.8-.72,5.14.21,9.24,2.76,12.17,2.97,3.41,8.21,5.22,15.16,5.22,7.8,0,13.58-1.73,16.43-3.36l3.47-9.83c-4.26,2.04-9.83,2.78-13.73,2.78-4.74,0-7.59-.72-8.95-2.27-.78-.89-1.08-2.03-.89-3.5l.03-.21h.21c1.65.06,3.51.11,5.17.11,15.3,0,24.42-5,25.68-14.07m37.58-9.83h-11.06l5.37-15.1-14.77,3.96-3.97,11.14h-6.65l-3.95,11.26h6.65l-4.91,13.9c-.51,1.63-1.13,3.73-1.36,5.51-.41,2.86.04,4.99,1.37,6.52,1.75,2.01,5,2.99,9.95,2.99,4.09,0,7.69-.82,9.58-1.53l3.91-11.14c-2.01.74-3.98.83-4.78.83-2.06,0-3.42-.4-4.15-1.24-.58-.66-.78-1.59-.62-2.85.16-.85.53-2.07,1.06-3.52l3.27-9.31.06-.17h3.03c8.36-.01,11.46-9.47,11.97-11.26m42.19,9.51c.46-3.25-.07-5.78-1.58-7.52-1.6-1.85-4.28-2.78-7.95-2.78-3.95,0-9.78.9-14.96,6.3h-.37s7.13-20.62,7.13-20.62h-13.54l-18.94,54.3h13.43l6.39-18.19c2.6-7.28,5.91-10.52,10.73-10.52,1.63,0,2.81.42,3.52,1.24.71.82.95,2.04.73,3.63-.09.83-.37,1.74-.71,2.79-.08.26-.16.52-.25.81l-7.17,20.25h13.59l8.44-23.95c.86-2.47,1.33-4.23,1.52-5.72m9.57,29.67l19.05-54.3h-13.54l-19.05,54.3h13.54Zm41.68-27.43c-.47,3.27-3.92,4.86-10.53,4.86-1.17,0-2.39,0-4.04-.16l-.31-.03.12-.29c2.01-5.01,5.78-7.76,10.62-7.76,1.78,0,2.97.36,3.61,1.1.49.56.66,1.31.53,2.29m14.63-1.92c.36-2.55-.22-4.71-1.72-6.44-2.53-2.91-7.47-4.39-14.67-4.39-15.11,0-27.02,9.79-28.95,23.8-.74,5.12.18,9.21,2.72,12.14,2.97,3.43,8.23,5.24,15.2,5.24,7.79,0,13.58-1.73,16.43-3.36l3.47-9.83c-4.26,2.04-9.83,2.78-13.73,2.78-4.74,0-7.59-.72-8.95-2.27-.78-.89-1.07-2.03-.89-3.5l.03-.21h.21c1.65.06,3.51.11,5.17.11,15.3,0,24.42-5,25.68-14.07m68.78-17.52l3.85-10.87c-1.82-.37-4.19-.73-7.82-.73-10.05,0-17.17,5.08-20.57,14.7l-1.59,4.6h-16.24l.65-1.74c1.67-4.74,3.81-6.34,8.46-6.34,1.4,0,2.81.26,3.49.39l3.85-10.87c-1.82-.37-4.19-.73-7.81-.73-10.05,0-17.17,5.08-20.57,14.7l-1.59,4.6h-6.68l-3.9,11.26h6.53l-9.82,27.91h13.64l9.82-27.91h16.13l-9.82,27.91h13.64l9.76-27.76.06-.17h2.44c8.36-.01,11.46-9.46,11.97-11.25h-10.47l.64-1.74c1.67-4.74,3.81-6.34,8.46-6.34,1.4,0,2.81.26,3.49.39m32.2,8.25c-3.78-1.14-8.87-1.56-12.42-1.56-8.03,0-14.07,1.56-17.94,4.64-3.02,2.4-4.79,5.71-5.41,10.12-1.08,7.77,5.46,9.43,10.25,10.65,2.87.73,5.14,1.31,4.9,2.99-.25,2.08-2.19,3.01-6.31,3.01-5.26,0-8.76-.28-13.16-1.78l-3.32,9.48c4.29,1.53,9.94,2.07,13.53,2.07,19.08,0,23.29-9.78,24.1-15.6,1.12-7.88-5.56-9.32-10.43-10.37-2.86-.62-5.12-1.1-4.88-2.74.26-1.91,2.11-2.69,6.41-2.69,4.01,0,8.42.55,11.47,1.02l3.21-9.25Z" fill="#be1d28"/></svg>