<svg id="eriba-svg" xmlns="http://www.w3.org/2000/svg" width="200" height="30" viewBox="0 0 200 30">
  <path id="eriba-path" d="M107.9805,8.142l2.4264-7.14h-4.56c-4.5459,0-4.5409,0-5.8892,3.9719L91.8015,28.78h4.5459c4.5551,0,4.5551,0,5.9225-3.97l5.7042-16.6662Zm23.5928,6.7523a7.5822,7.5822,0,0,0,2.9573-4.4758c1.938-6.7243-2.2485-9.4353-8.2411-9.4165h-8.8281c-4.56,0-4.5672,0-5.9154,3.972l-8.1306,23.7942H125.234c4.64-.1927,6.4555-3.0383,7.3721-5.614C134.0472,19.08,133.154,16.4572,131.5733,14.8943Zm-7.23,5.9371c-.5806,1.7116-1.6354,2.3921-3.5443,2.3921-.0071.0071,1.1838,0-6.3875,0l1.6353-4.7708h5.4646c2.3052,0,3.4961.4086,2.829,2.378Zm2.6312-10.3029c-.5217,1.7073-1.2242,1.9744-3.423,1.9744H118.09l1.4844-4.38h5.4667c1.3156.0056,2.5228.47,1.9309,2.4047Zm29.9711-5.64s-.1573-1.0289-.4324-2.2064C156.0784.8353,154.8216,1.04,151.9054,1h-5.9835c-4.5409,0-4.5012-.035-5.8891,3.967-2.06,5.9344-8.17,23.811-8.17,23.811h4.548c4.5743,0,4.5672,0,5.9317-3.974.0915-.267.5451-1.5819.5451-1.5819h8.1944l.94,5.5559H161Zm-11.6521,11.21,2.7085-7.94h.4721l1.3468,7.9368ZM95.6024,11.3576c1.602-7.2821-2.3491-10.3548-8.3538-10.3548h-8.81c-4.5572,0-4.5622.0091-5.9175,3.9719L64.3788,28.7808h4.56c4.55,0,4.553,0,5.91-3.97L80.5605,8.13H86.074c.6975,0,2.7532.1745,2.2293,1.9092-.679,2.2533-1.5268,2.4531-3.7307,2.4531H81.8031L79.3413,19.66l1.56,9.1212h8.9528L88.1268,18.5543c4.5084-.4128,6.8837-4.5242,7.4707-7.1981ZM46.2547,1.0028H23.0263c-4.346,0-4.4708-.0532-7.0028,3.8927-.4771.7437-2.0486,3.236-2.0486,3.236H43.8177ZM42.7381,11.2182H12.0369L7.496,18.4442H40.2883ZM1,28.7773H32.8857c3.8739,0,3.8739,0,5.2293-3.9649L39.2,21.6255H5.4871Zm50.428-7.149,1.362-3.9838H63.6345L65.8829,11.22H54.9864l1.0527-3.0839h9.1194c4.5551,0,4.548,0,5.9062-3.9488L72.15,1.007H53.909c-4.5459-.0049-4.5459,0-5.9083,3.9649L39.863,28.7829H58.0976c4.5551,0,4.553,0,5.91-3.97l1.1065-3.1848Z" fill="#727476"/>
</svg>
