<svg width="669" height="241" viewBox="0 0 669 241" fill="none" xmlns="http://www.w3.org/2000/svg">
<g clip-path="url(#clip0_13211_216541)">
<path d="M99.3369 74.8C106.534 74.8 106.334 75.01 106.334 67.17V46.61C106.334 33.69 107.603 28.18 94.0492 25.85C91.5103 25.42 87.2621 25.22 87.2621 21.61C87.2621 18.23 89.3812 17.58 92.3399 17.58C103.365 17.58 113.951 18.42 124.966 18.42C135.131 18.42 145.287 17.58 155.253 17.58C158.221 17.58 160.55 18.22 160.55 21.61C160.55 25 157.162 25.42 154.623 25.85C140.209 28.18 141.259 32.42 141.259 46.61V121.83C141.259 134.34 140.419 139.42 153.763 141.55C156.532 141.97 160.54 142.61 160.54 146.42C160.54 149.6 158.211 150.45 155.443 150.45C144.447 150.45 133.852 149.61 122.847 149.61C112.671 149.61 102.496 150.45 92.3299 150.45C89.3712 150.45 87.2522 149.61 87.2522 146.42C87.2522 143.02 90.4208 141.97 92.9597 141.55C106.954 139.22 106.324 135.62 106.324 121.83V89.42C106.114 83.71 105.684 84.33 99.9566 84.33H62.263C53.3668 84.33 54.0066 83.48 54.0066 92.17V121.83C54.0066 134.34 53.1469 139.42 66.5011 141.55C69.25 141.97 73.2682 142.61 73.2682 146.42C73.2682 149.6 70.9392 150.45 68.1804 150.45C57.1652 150.45 46.5798 149.61 35.5546 149.61C25.389 149.61 15.2334 150.45 5.06778 150.45C2.09906 150.45 -0.0200195 149.61 -0.0200195 146.42C-0.0200195 143.02 3.14861 141.97 5.6975 141.55C19.6814 139.22 19.0517 135.62 19.0517 121.83V46.61C19.0517 33.69 20.3112 28.18 6.74705 25.85C4.20815 25.42 -0.0200195 25.22 -0.0200195 21.61C-0.0200195 18.23 2.09906 17.58 5.06778 17.58C16.083 17.58 26.6784 18.42 37.6936 18.42C47.8592 18.42 58.0248 17.58 67.9805 17.58C70.9392 17.58 73.2682 18.22 73.2682 21.61C73.2682 25 69.8897 25.42 67.3408 25.85C52.937 28.18 53.9966 32.42 53.9966 46.61V67.17C53.9966 74.8 54.2065 74.8 61.6133 74.8H99.3169H99.3369Z" fill="#427BAA"/>
<path d="M167.078 101.07C167.078 70.14 197.794 50.44 227.022 50.44C241.216 50.44 255.189 54.24 266.415 62.72C278.06 71.4 285.896 84.97 285.896 99.39C285.896 131.37 256.039 151.51 225.312 151.51C194.586 151.51 167.078 132.86 167.078 101.07ZM252.021 104.47C252.021 94.73 249.892 82.22 245.454 73.53C241.645 65.9 234.229 57.64 224.903 57.64C206.69 57.64 201.183 81.17 201.183 95.37C201.183 111.05 207.97 144.32 229.151 144.32C247.793 144.32 252.031 118.46 252.031 104.49L252.021 104.47Z" fill="#427BAA"/>
<path d="M336.704 58.69C336.704 59.33 337.564 59.75 337.994 59.75C339.053 59.75 350.708 54.24 351.538 53.82C357.475 51.27 359.394 50.44 365.961 50.44C393.28 50.44 413.631 71.63 413.631 98.75C413.631 132.23 382.894 151.52 352.197 151.52C340.742 151.52 334.195 149.4 324.439 144.32C323.17 143.69 319.562 141.56 318.302 141.56C313.654 141.56 312.794 154.71 306.647 154.71C303.888 154.71 302.829 153 302.829 150.46C302.829 149.41 303.039 147.92 303.259 146.86C303.888 142.62 303.688 136.89 303.688 132.67V33.47C303.688 21.82 304.318 19.69 292.453 18.01C290.764 17.8 288.215 17.17 288.215 14.83C288.215 10.81 294.352 10.38 297.321 9.96C307.067 8.69 315.963 5.72 325.289 2.32C327.398 1.48 330.787 0 333.116 0C337.784 0 336.714 7.2 336.714 10.17V58.69H336.704ZM336.704 116.11C336.704 129.04 335.455 144.1 353.017 144.1C362.123 144.1 369.32 136.24 373.138 128.62C376.967 120.77 378.456 112.3 378.456 103.82C378.456 87.72 369.78 64.2 350.478 64.2C346.45 64.2 341.372 65.69 338.843 68.85C336.704 71.4 336.704 75.65 336.704 78.6V116.11Z" fill="#427BAA"/>
<path d="M463.769 58.69C463.769 59.33 464.619 59.75 465.048 59.75C466.078 59.75 477.753 54.24 478.603 53.82C484.52 51.27 486.429 50.44 492.986 50.44C520.304 50.44 540.656 71.63 540.656 98.75C540.656 132.23 509.939 151.52 479.222 151.52C467.777 151.52 461.22 149.4 451.474 144.32C450.185 143.69 446.596 141.56 445.317 141.56C440.659 141.56 439.829 154.71 433.692 154.71C430.923 154.71 429.864 153 429.864 150.46C429.864 149.41 430.064 147.92 430.293 146.86C430.923 142.62 430.693 136.89 430.693 132.67V33.47C430.693 21.82 431.343 19.69 419.478 18.01C417.789 17.8 415.25 17.17 415.25 14.83C415.25 10.81 421.387 10.38 424.356 9.96C434.092 8.69 442.998 5.72 452.304 2.32C454.443 1.48 457.812 0 460.151 0C464.799 0 463.749 7.2 463.749 10.17V58.69H463.769ZM463.769 116.11C463.769 129.04 462.51 144.1 480.092 144.1C489.168 144.1 496.395 136.24 500.193 128.62C504.012 120.77 505.501 112.3 505.501 103.82C505.501 87.72 496.825 64.2 477.533 64.2C473.505 64.2 468.417 65.69 465.878 68.85C463.769 71.4 463.769 75.65 463.769 78.6V116.11Z" fill="#427BAA"/>
<path d="M635.325 76.06C636.354 73.52 637.843 70.56 637.843 67.59C637.843 62.71 632.336 61.23 628.308 61.02C625.139 60.79 620.261 60.6 620.261 56.14C620.261 52.76 624.509 52.76 627.048 52.76C633.185 52.76 639.123 53.17 645.27 53.17C651.418 53.17 657.335 52.76 663.472 52.76C666.241 52.76 668.99 52.76 668.99 56.14C668.99 59.74 666.021 60.6 663.043 61.02C657.765 61.85 656.076 61.44 652.457 65.89C648.859 70.13 644.86 79.24 642.521 84.32L610.525 152.13L599.08 179.68C594.852 192.18 595.682 195.36 581.718 195.36C572.382 195.36 563.076 194.73 563.076 183.51C563.076 180.11 563.926 175.88 565.845 173.11C569.013 168.88 573.861 169.51 578.319 169.73C584.686 169.94 589.764 171.2 594.212 165.92C596.131 163.58 598.67 158.93 598.67 155.75C598.67 152.35 596.132 147.27 594.642 144.1L563.306 80.73C560.737 76.06 557.338 69.06 553.97 65.05C551.231 61.65 549.292 61.65 545.264 61.02C542.745 60.6 539.126 59.97 539.126 56.35C539.126 52.73 543.155 52.75 546.353 52.75C555.659 52.75 565.415 53.16 574.721 53.16C582.767 53.16 591.254 52.75 599.5 52.75C602.269 52.75 607.127 52.75 607.127 56.35C607.127 59.53 604.178 60.38 601.639 61.02C598.88 61.65 593.373 61.85 593.373 66.11C593.373 68.65 595.692 73.31 596.771 75.42L612.434 108.06C613.064 109.12 615.203 114.63 616.893 114.63C619.002 114.63 620.921 109.34 621.321 107.85L635.325 76.06Z" fill="#427BAA"/>
<path d="M39.3929 230.54C37.3138 231.19 35.0348 231.52 32.5459 231.52C29.6072 231.52 26.9583 231.07 24.5893 230.16C22.2304 229.25 20.2112 227.98 18.532 226.33C16.8627 224.69 15.5732 222.72 14.6736 220.43C13.774 218.14 13.3242 215.61 13.3242 212.86C13.3242 210.11 13.764 207.53 14.6337 205.24C15.5133 202.94 16.7527 200.98 18.372 199.34C19.9913 197.7 21.9505 196.43 24.2595 195.53C26.5685 194.63 29.1574 194.18 32.0061 194.18C33.4455 194.18 34.7949 194.29 36.0344 194.5C37.2738 194.71 38.4233 195.02 39.4729 195.42C40.5224 195.82 41.502 196.3 42.4016 196.87C43.3012 197.44 44.1409 198.08 44.9205 198.8L43.5211 201.04C43.3012 201.38 43.0113 201.6 42.6715 201.69C42.3216 201.78 41.9318 201.7 41.512 201.45C41.1022 201.21 40.6324 200.92 40.1126 200.58C39.5828 200.24 38.9431 199.91 38.1934 199.6C37.4338 199.29 36.5442 199.02 35.5146 198.8C34.485 198.58 33.2656 198.47 31.8562 198.47C29.7971 198.47 27.9379 198.81 26.2786 199.48C24.6093 200.15 23.1899 201.11 22.0204 202.36C20.851 203.61 19.9513 205.12 19.3216 206.9C18.6919 208.68 18.382 210.67 18.382 212.88C18.382 215.09 18.7119 217.23 19.3616 219.04C20.0113 220.85 20.9509 222.39 22.1704 223.66C23.3799 224.93 24.8592 225.89 26.5885 226.55C28.3177 227.21 30.2669 227.54 32.4259 227.54C33.2756 227.54 34.0652 227.49 34.8049 227.39C35.5446 227.29 36.2543 227.15 36.934 226.97C37.6137 226.79 38.2634 226.57 38.8931 226.31C39.5229 226.05 40.1626 225.74 40.8023 225.4V217.34H35.1148C34.7949 217.34 34.535 217.25 34.3351 217.06C34.1352 216.87 34.0452 216.64 34.0452 216.37V213.57H45.2604V227.59C43.4212 228.92 41.462 229.91 39.3829 230.56L39.3929 230.54Z" fill="#427BAA"/>
<path d="M76.5268 194.57V198.6H58.9645V210.74H73.1883V214.62H58.9645V227.09H76.5568L76.5268 231.12H54.0166V194.58H76.5268V194.57Z" fill="#427BAA"/>
<path d="M84.6233 231.11V194.57H96.2682C98.5073 194.57 100.446 194.79 102.066 195.23C103.685 195.67 105.024 196.3 106.064 197.12C107.114 197.94 107.873 198.93 108.373 200.12C108.863 201.3 109.113 202.63 109.113 204.11C109.113 205.01 108.973 205.88 108.693 206.71C108.413 207.54 107.993 208.32 107.433 209.03C106.874 209.74 106.164 210.38 105.304 210.94C104.445 211.5 103.435 211.96 102.286 212.32C104.954 212.85 106.964 213.81 108.323 215.2C109.682 216.59 110.362 218.43 110.362 220.71C110.362 222.26 110.082 223.67 109.512 224.94C108.943 226.21 108.113 227.31 107.014 228.23C105.914 229.15 104.575 229.86 102.975 230.36C101.376 230.86 99.5568 231.11 97.5177 231.11H84.6233ZM89.5511 210.94H96.0783C97.4677 210.94 98.6772 210.79 99.7067 210.48C100.736 210.17 101.586 209.75 102.256 209.21C102.925 208.67 103.425 208.01 103.745 207.23C104.065 206.46 104.225 205.61 104.225 204.69C104.225 202.53 103.575 200.95 102.286 199.96C100.996 198.97 98.9871 198.47 96.2682 198.47H89.5412V210.94H89.5511ZM89.5511 214.46V227.18H97.4577C98.8671 227.18 100.087 227.02 101.106 226.7C102.126 226.38 102.965 225.92 103.615 225.34C104.265 224.75 104.745 224.06 105.054 223.25C105.364 222.44 105.514 221.55 105.514 220.58C105.514 218.69 104.845 217.2 103.505 216.1C102.166 215 100.147 214.46 97.4677 214.46H89.5611H89.5511Z" fill="#427BAA"/>
<path d="M147.946 231.11H144.118C143.678 231.11 143.318 231 143.048 230.78C142.778 230.56 142.568 230.28 142.438 229.94L139.02 221.12H122.627L119.208 229.94C119.108 230.25 118.908 230.52 118.619 230.76C118.329 231 117.969 231.12 117.549 231.12H113.721L128.324 194.58H133.322L147.926 231.12L147.946 231.11ZM124.006 217.54H137.64L131.903 202.67C131.713 202.23 131.533 201.72 131.353 201.14C131.173 200.56 130.993 199.94 130.803 199.28C130.633 199.94 130.463 200.57 130.284 201.15C130.104 201.74 129.924 202.25 129.734 202.69L123.996 217.53L124.006 217.54Z" fill="#427BAA"/>
<path d="M167.187 227.18C168.697 227.18 170.046 226.92 171.236 226.41C172.425 225.9 173.435 225.19 174.254 224.27C175.074 223.35 175.704 222.26 176.144 220.98C176.573 219.71 176.793 218.3 176.793 216.77V194.56H181.711V216.77C181.711 218.88 181.371 220.83 180.702 222.64C180.032 224.44 179.072 226 177.823 227.32C176.573 228.64 175.044 229.67 173.245 230.42C171.446 231.17 169.426 231.54 167.177 231.54C164.928 231.54 162.909 231.17 161.11 230.42C159.311 229.67 157.782 228.64 156.522 227.32C155.263 226 154.303 224.44 153.633 222.64C152.964 220.84 152.624 218.88 152.624 216.77V194.56H157.542V216.75C157.542 218.28 157.762 219.68 158.191 220.96C158.621 222.24 159.251 223.33 160.081 224.25C160.91 225.17 161.92 225.89 163.109 226.4C164.309 226.92 165.658 227.18 167.177 227.18H167.187Z" fill="#427BAA"/>
<path d="M216.456 194.57V198.73H204.631V231.11H199.713V198.73H187.859V194.57H216.456Z" fill="#427BAA"/>
<path d="M258.228 194.57V198.6H240.666V211.38H255.679V215.41H240.666V231.12H235.718V194.58H258.228V194.57Z" fill="#427BAA"/>
<path d="M279.819 227.18C281.328 227.18 282.677 226.92 283.867 226.41C285.056 225.9 286.066 225.19 286.886 224.27C287.705 223.35 288.335 222.26 288.775 220.98C289.205 219.71 289.425 218.3 289.425 216.77V194.56H294.342V216.77C294.342 218.88 294.003 220.83 293.333 222.64C292.663 224.44 291.704 226 290.454 227.32C289.205 228.64 287.675 229.67 285.876 230.42C284.077 231.17 282.058 231.54 279.809 231.54C277.56 231.54 275.541 231.17 273.741 230.42C271.942 229.67 270.413 228.64 269.153 227.32C267.894 226 266.934 224.44 266.265 222.64C265.595 220.84 265.255 218.88 265.255 216.77V194.56H270.173V216.75C270.173 218.28 270.393 219.68 270.823 220.96C271.252 222.24 271.882 223.33 272.712 224.25C273.541 225.17 274.551 225.89 275.74 226.4C276.94 226.92 278.289 227.18 279.809 227.18H279.819ZM277.3 188.63C277.3 189 277.22 189.36 277.07 189.69C276.92 190.02 276.71 190.31 276.45 190.57C276.19 190.83 275.88 191.03 275.531 191.17C275.181 191.31 274.821 191.39 274.451 191.39C274.081 191.39 273.751 191.32 273.421 191.17C273.092 191.03 272.802 190.83 272.542 190.57C272.282 190.31 272.082 190.02 271.932 189.69C271.782 189.36 271.702 189.01 271.702 188.63C271.702 188.25 271.782 187.87 271.932 187.52C272.082 187.17 272.292 186.87 272.542 186.61C272.792 186.35 273.092 186.15 273.421 186C273.751 185.85 274.101 185.77 274.451 185.77C274.801 185.77 275.181 185.85 275.531 186C275.88 186.15 276.18 186.36 276.45 186.61C276.72 186.86 276.92 187.17 277.07 187.52C277.22 187.87 277.3 188.24 277.3 188.63ZM287.955 188.63C287.955 189 287.875 189.36 287.725 189.69C287.575 190.02 287.365 190.31 287.116 190.57C286.866 190.83 286.566 191.03 286.226 191.17C285.886 191.31 285.526 191.39 285.156 191.39C284.787 191.39 284.397 191.32 284.057 191.17C283.717 191.03 283.417 190.83 283.167 190.57C282.917 190.31 282.707 190.02 282.568 189.69C282.428 189.36 282.348 189.01 282.348 188.63C282.348 188.25 282.418 187.87 282.568 187.52C282.707 187.17 282.907 186.87 283.167 186.61C283.427 186.35 283.717 186.15 284.057 186C284.397 185.85 284.767 185.77 285.156 185.77C285.546 185.77 285.886 185.85 286.226 186C286.566 186.15 286.866 186.36 287.116 186.61C287.365 186.86 287.575 187.17 287.725 187.52C287.875 187.87 287.955 188.24 287.955 188.63Z" fill="#427BAA"/>
<path d="M309.306 215.86V231.11H304.388V194.57H314.714C317.023 194.57 319.022 194.8 320.701 195.27C322.38 195.74 323.77 196.41 324.869 197.3C325.969 198.18 326.778 199.25 327.308 200.5C327.838 201.75 328.098 203.15 328.098 204.69C328.098 205.98 327.898 207.19 327.488 208.31C327.078 209.43 326.488 210.44 325.719 211.33C324.949 212.22 324 212.99 322.89 213.62C321.781 214.26 320.511 214.73 319.102 215.04C319.751 215.45 320.291 215.97 320.731 216.6L331.386 231.11H326.998C326.099 231.11 325.439 230.76 325.009 230.06L315.523 217C315.233 216.59 314.924 216.3 314.594 216.12C314.264 215.94 313.744 215.85 313.054 215.85H309.306V215.86ZM309.306 212.27H314.504C315.933 212.27 317.193 212.1 318.292 211.75C319.392 211.4 320.301 210.91 321.041 210.27C321.781 209.63 322.34 208.87 322.71 207.99C323.08 207.11 323.27 206.13 323.27 205.06C323.27 202.88 322.56 201.24 321.131 200.14C319.701 199.04 317.562 198.48 314.704 198.48H309.296V212.28L309.306 212.27Z" fill="#427BAA"/>
<path d="M356.186 200.28C356.036 200.53 355.866 200.73 355.686 200.85C355.506 200.97 355.296 201.04 355.036 201.04C354.746 201.04 354.406 200.9 354.017 200.61C353.627 200.32 353.137 200 352.547 199.65C351.957 199.3 351.258 198.98 350.428 198.69C349.608 198.4 348.609 198.26 347.429 198.26C346.32 198.26 345.35 198.41 344.511 198.71C343.671 199.01 342.961 199.41 342.392 199.92C341.822 200.43 341.392 201.03 341.102 201.72C340.812 202.41 340.672 203.15 340.672 203.95C340.672 204.97 340.922 205.82 341.422 206.49C341.922 207.16 342.581 207.74 343.411 208.21C344.231 208.69 345.17 209.1 346.21 209.45C347.249 209.8 348.329 210.16 349.419 210.53C350.518 210.9 351.588 211.32 352.627 211.79C353.677 212.26 354.606 212.85 355.426 213.56C356.256 214.27 356.915 215.15 357.415 216.19C357.915 217.23 358.165 218.5 358.165 220.02C358.165 221.62 357.895 223.12 357.345 224.52C356.805 225.92 356.006 227.14 354.966 228.18C353.927 229.22 352.637 230.03 351.118 230.63C349.598 231.22 347.869 231.52 345.93 231.52C343.551 231.52 341.392 231.09 339.453 230.23C337.514 229.37 335.854 228.21 334.485 226.75L335.914 224.4C336.054 224.21 336.214 224.06 336.414 223.93C336.614 223.8 336.824 223.74 337.064 223.74C337.284 223.74 337.534 223.83 337.814 224.01C338.093 224.19 338.413 224.41 338.773 224.69C339.133 224.96 339.543 225.26 339.993 225.58C340.452 225.9 340.972 226.2 341.562 226.47C342.152 226.74 342.811 226.97 343.561 227.15C344.311 227.33 345.15 227.42 346.08 227.42C347.249 227.42 348.299 227.26 349.219 226.94C350.138 226.62 350.918 226.16 351.548 225.58C352.177 225 352.667 224.29 353.017 223.48C353.357 222.66 353.527 221.75 353.527 220.75C353.527 219.65 353.277 218.74 352.777 218.03C352.277 217.32 351.618 216.73 350.798 216.26C349.978 215.78 349.049 215.38 347.999 215.05C346.95 214.72 345.87 214.38 344.791 214.03C343.701 213.68 342.631 213.28 341.582 212.82C340.532 212.36 339.593 211.77 338.773 211.03C337.963 210.3 337.304 209.39 336.794 208.29C336.294 207.19 336.044 205.84 336.044 204.22C336.044 202.93 336.294 201.68 336.794 200.47C337.294 199.26 338.023 198.19 338.983 197.26C339.943 196.33 341.122 195.58 342.522 195.02C343.921 194.46 345.53 194.18 347.349 194.18C349.389 194.18 351.248 194.5 352.917 195.15C354.586 195.8 356.066 196.73 357.335 197.96L356.136 200.31L356.186 200.28Z" fill="#427BAA"/>
<path d="M385.473 226.95H401.276V231.11H380.555V194.57H385.473V226.95Z" fill="#427BAA"/>
<path d="M430.403 194.57V198.6H412.841V210.74H427.065V214.62H412.841V227.09H430.433L430.403 231.12H407.893V194.58H430.403V194.57Z" fill="#427BAA"/>
<path d="M438.51 231.11V194.57H450.155C452.394 194.57 454.333 194.79 455.952 195.23C457.572 195.67 458.911 196.3 459.951 197.12C460.99 197.94 461.76 198.93 462.26 200.12C462.759 201.31 462.999 202.63 462.999 204.11C462.999 205.01 462.859 205.88 462.58 206.71C462.3 207.54 461.88 208.32 461.32 209.03C460.76 209.74 460.051 210.38 459.191 210.94C458.331 211.5 457.322 211.96 456.172 212.32C458.841 212.85 460.85 213.81 462.21 215.2C463.569 216.59 464.249 218.43 464.249 220.71C464.249 222.26 463.959 223.67 463.399 224.94C462.829 226.21 462 227.31 460.9 228.23C459.801 229.15 458.461 229.86 456.862 230.36C455.263 230.86 453.444 231.11 451.404 231.11H438.51ZM443.428 210.94H449.955C451.344 210.94 452.554 210.79 453.583 210.48C454.613 210.17 455.463 209.75 456.132 209.21C456.802 208.67 457.302 208.01 457.622 207.23C457.942 206.46 458.111 205.61 458.111 204.69C458.111 202.53 457.462 200.95 456.172 199.96C454.883 198.97 452.874 198.47 450.155 198.47H443.428V210.94ZM443.428 214.46V227.18H451.334C452.744 227.18 453.963 227.02 454.983 226.7C456.002 226.38 456.842 225.92 457.492 225.34C458.141 224.76 458.621 224.06 458.931 223.25C459.241 222.44 459.391 221.55 459.391 220.58C459.391 218.69 458.721 217.2 457.382 216.1C456.042 215 454.023 214.46 451.344 214.46H443.438H443.428Z" fill="#427BAA"/>
<path d="M495.145 194.57V198.6H477.583V210.74H491.807V214.62H477.583V227.09H495.175L495.145 231.12H472.635V194.58H495.145V194.57Z" fill="#427BAA"/>
<path d="M506.36 194.61C506.51 194.64 506.65 194.68 506.77 194.74C506.89 194.8 507.01 194.89 507.13 195C507.25 195.11 507.38 195.25 507.51 195.42L528.641 222.93C528.611 222.49 528.581 222.06 528.551 221.64C528.521 221.22 528.511 220.83 528.511 220.45V194.57H532.849V231.11H530.38C529.99 231.11 529.66 231.04 529.401 230.91C529.141 230.77 528.881 230.54 528.621 230.22L507.49 202.71C507.52 203.14 507.55 203.55 507.57 203.96C507.59 204.37 507.6 204.74 507.6 205.08V231.12H503.262V194.58H505.811C506.031 194.58 506.221 194.59 506.37 194.62L506.36 194.61Z" fill="#427BAA"/>
</g>
<defs>
<clipPath id="clip0_13211_216541">
<rect width="669" height="241" fill="white"/>
</clipPath>
</defs>
</svg>
