<?xml version="1.0" encoding="iso-8859-1"?>
<svg width="175" height="106" xmlns="http://www.w3.org/2000/svg" viewBox="0 0 175 106.591">
    <g>
        <clipPath id="logo-clip-path">
            <path d="M327.619,398.916a267.8,267.8,0,0,1-6.328,34.256,1.591,1.591,0,0,1-.711.976,128.624,128.624,0,0,1-18.08,8.715V397.94q12.379,0,24.529.289a.639.639,0,0,1,.627.627h0Z"
                  transform="translate(-302.5 -397.94)" fill="none"/>
        </clipPath>
        <clipPath id="logo-clip-path-2">
            <path d="M281.616,398.916a267.467,267.467,0,0,0,6.328,34.256,1.579,1.579,0,0,0,.711.976,128.551,128.551,0,0,0,18.08,8.715V397.94q-12.379,0-24.529.289a.639.639,0,0,0-.627.627h0Z"
                  transform="translate(-281.58 -397.94)" fill="none"/>
        </clipPath>
    </g>
    <g transform="translate(0 -0.005)">
        <path d="M22.588,74.148V68.64H0v5.508H7.738V92.506h7.075V74.148Z" transform="translate(0 14.066)"
              fill="#9fa5a9"/>
        <path d="M277.182,477.878,268.311,454h-9.486l-8.775,23.878h6.943l1.892-5.581h9.052l1.856,5.581h7.377Zm-10.523-10.2h-6.473l3.291-9.558,3.182,9.558h0Z"
              transform="translate(-227.269 -371.294)" fill="#9fa5a9"/>
        <path d="M295.956,471.174a4.918,4.918,0,0,0-1.543-3.833,7.233,7.233,0,0,0-3.8-1.784,6.424,6.424,0,0,0,3.508-1.892,6.111,6.111,0,0,0,.579-6.617,5.449,5.449,0,0,0-1.856-1.82,7.557,7.557,0,0,0-2.579-.928,14.752,14.752,0,0,0-2.9-.289H275.2v23.878h11.137a28.412,28.412,0,0,0,3.511-.217,9.472,9.472,0,0,0,3.07-.964,5.676,5.676,0,0,0,2.182-2,6.375,6.375,0,0,0,.856-3.508h0Zm-7.485-10.306a2.724,2.724,0,0,1-.362,1.471,2.785,2.785,0,0,1-.964.928,4.327,4.327,0,0,1-1.326.458,7.316,7.316,0,0,1-1.47.145h-2.411V458h2.724a6.7,6.7,0,0,1,1.4.145,3.92,3.92,0,0,1,1.205.47,2.41,2.41,0,0,1,.856.892,2.6,2.6,0,0,1,.325,1.362h0Zm.4,9.848a2.6,2.6,0,0,1-.434,1.543,2.88,2.88,0,0,1-1.037.964,4.591,4.591,0,0,1-1.471.494,8.436,8.436,0,0,1-1.543.145h-2.411v-6.3h2.411a11.709,11.709,0,0,1,1.615.108,4.075,4.075,0,0,1,1.471.458,2.6,2.6,0,0,1,1.037.928,2.809,2.809,0,0,1,.434,1.651h0Z"
              transform="translate(-221.944 -371.292)" fill="#9fa5a9"/>
        <path d="M317.248,471.178a4.918,4.918,0,0,0-1.543-3.833,7.232,7.232,0,0,0-3.8-1.784,6.437,6.437,0,0,0,3.52-1.917,6.111,6.111,0,0,0,.566-6.617,5.449,5.449,0,0,0-1.856-1.82,7.556,7.556,0,0,0-2.58-.928,14.747,14.747,0,0,0-2.9-.289H296.48v23.878h11.137a28.4,28.4,0,0,0,3.514-.218,9.473,9.473,0,0,0,3.067-.963,5.689,5.689,0,0,0,2.182-2,6.364,6.364,0,0,0,.856-3.508h0Zm-7.485-10.306a2.725,2.725,0,0,1-.362,1.471,2.786,2.786,0,0,1-.964.928,4.306,4.306,0,0,1-1.326.458,7.228,7.228,0,0,1-1.471.145H303.23V458h2.724a6.676,6.676,0,0,1,1.4.145,3.92,3.92,0,0,1,1.205.47,2.411,2.411,0,0,1,.856.892,2.6,2.6,0,0,1,.325,1.362h0Zm.4,9.848a2.616,2.616,0,0,1-.434,1.543,2.9,2.9,0,0,1-1.037.964,4.579,4.579,0,0,1-1.471.494,8.512,8.512,0,0,1-1.543.145h-2.411v-6.3h2.411a11.747,11.747,0,0,1,1.615.108,4.063,4.063,0,0,1,1.471.458,2.628,2.628,0,0,1,1.036.928,2.82,2.82,0,0,1,.434,1.651h0Z"
              transform="translate(-217.496 -371.296)" fill="#9fa5a9"/>
        <path d="M105.009,92.506V87.889H93.727V82.742h10.559V78.15H93.727V73.256h10.993V68.64H86.82V92.506Z"
              transform="translate(18.14 14.066)" fill="#9fa5a9"/>
        <path d="M359.344,477.882l-2.411-7.594a8.553,8.553,0,0,0-.639-1.543,4.542,4.542,0,0,0-.856-1.109,3.531,3.531,0,0,0-1.205-.747,6.158,6.158,0,0,0-1.579-.506,9.992,9.992,0,0,0,2.218-.711,6.29,6.29,0,0,0,1.8-1.205,5.57,5.57,0,0,0,1.205-1.76,6.026,6.026,0,0,0,.434-2.326,5.557,5.557,0,0,0-.783-3.074,5.461,5.461,0,0,0-2-1.965,7.945,7.945,0,0,0-2.8-1.037,15.209,15.209,0,0,0-3.11-.325H337.66v23.878h6.907v-9.052h1.941a5.16,5.16,0,0,1,1.507.181,1.978,1.978,0,0,1,.964.494,2.061,2.061,0,0,1,.6.892,12.931,12.931,0,0,1,.506,1.4l1.856,6.027h7.413Zm-8.124-16.573a2.857,2.857,0,0,1-.4,1.579,2.508,2.508,0,0,1-.964.892,4.711,4.711,0,0,1-1.434.47,11.84,11.84,0,0,1-1.615.108h-2.29v-5.87h2.411a11.124,11.124,0,0,1,1.579.108,4.328,4.328,0,0,1,1.362.4,2.243,2.243,0,0,1,.964.856,2.628,2.628,0,0,1,.362,1.47h0Z"
              transform="translate(-208.813 -371.298)" fill="#9fa5a9"/>
        <path d="M148.648,74.148V68.64H126.06v5.508H133.8V92.506h7.087V74.148Z" transform="translate(26.352 14.066)"
              fill="#9fa5a9"/>
        <path d="M314.551,385.5q2.411.06,4.737.181v5.846a3.218,3.218,0,0,0,3.158,3.158l5.581.41a3.158,3.158,0,0,0,3.291-2.3l1.4-6.123q2.591.265,5.135.579a273.4,273.4,0,0,1-7.967,50.215,4.725,4.725,0,0,1-2.061,2.772,133.243,133.243,0,0,1-20.2,9.57,133.237,133.237,0,0,1-20.2-9.57,4.725,4.725,0,0,1-2.061-2.772,273.442,273.442,0,0,1-7.967-50.215q2.555-.313,5.135-.579l1.41,6.123a3.158,3.158,0,0,0,3.291,2.3l5.581-.41a3.218,3.218,0,0,0,3.146-3.158v-5.846c1.579-.072,3.146-.133,4.737-.181l.639,5.918a3.158,3.158,0,0,0,3.134,2.821h6.3a3.158,3.158,0,0,0,3.134-2.821l.639-5.918h0Z"
              transform="translate(-221.427 -385.36)" fill="#9fa5a9"/>
        <path d="M314.551,385.5q2.411.06,4.737.181v5.846a3.218,3.218,0,0,0,3.158,3.158l5.581.41a3.158,3.158,0,0,0,3.291-2.3l1.4-6.123q2.591.265,5.135.579a273.4,273.4,0,0,1-7.967,50.215,4.725,4.725,0,0,1-2.061,2.772,133.243,133.243,0,0,1-20.2,9.57,133.237,133.237,0,0,1-20.2-9.57,4.725,4.725,0,0,1-2.061-2.772,273.442,273.442,0,0,1-7.967-50.215q2.555-.313,5.135-.579l1.41,6.123a3.158,3.158,0,0,0,3.291,2.3l5.581-.41a3.218,3.218,0,0,0,3.146-3.158v-5.846c1.579-.072,3.146-.133,4.737-.181l.639,5.918a3.158,3.158,0,0,0,3.134,2.821h6.3a3.158,3.158,0,0,0,3.134-2.821l.639-5.918h0Z"
              transform="translate(-221.427 -385.36)" fill="none" stroke="#1a171b" stroke-linecap="round"
              stroke-linejoin="round" stroke-width="0.27"/>
        <path d="M327.619,398.916a267.8,267.8,0,0,1-6.328,34.256,1.591,1.591,0,0,1-.711.976,128.624,128.624,0,0,1-18.08,8.715V397.94q12.379,0,24.529.289a.639.639,0,0,1,.627.627h0Z"
              transform="translate(-216.23 -382.805)" fill="#991028"/>
        <g transform="translate(86.27 15.134)" clip-path="url(#logo-clip-path)">
            <path d="M311.508,428.815c-.121-2.242.88-4.014,2.531-4.46-.663-1.073-1.772-2.7-2.507-3.966-2.845.542-3.881,3.291-3.881,5.858,0,1.085.313,2.3-.771,2.965h-.265a1.205,1.205,0,0,0-1.205,1.037h4.026a3.278,3.278,0,0,0,2.049-1.507h0ZM308.108,404c-.313.084.084,1.012.169,1.205l.253.229c2.182-.386,2.411,1.205.374,1.422.747,1.76,1.82.675,2.652,1.205.277.181,1.76,1.205,1.495,1.6-.9,1.205-1.941,2-2.411,3.532a1.293,1.293,0,0,1-.3.217,12.941,12.941,0,0,0-2.182,1.133c-.506.277-2.013,1.013-2.17,1.6s-.265,3.194,1.133,3.483c-.253-2.121,1.422-2.242,2.989-2.411a.241.241,0,0,1,.241.229c.313,2.037,3,5.472,4.086,7.4.783,1.4,1.7,2.6,1.109,4.327a.494.494,0,0,1-.337,0,1.205,1.205,0,0,0-1.471,1.1h4.942c2.013-1.205,1.567-4.966.506-7.979a21.551,21.551,0,0,1-.627-11.812c.35-1.362-.325-2.326-1.037-3.52a5.761,5.761,0,0,1-1.133-3.254c-.072-.591-.362-1.977-1.3-1.639a24.953,24.953,0,0,1-6.545,1.748h-.41Zm3.339,7.449a10.848,10.848,0,0,0-5.846-1.615c-.181,0-.868.289-.759.627.41,1.061,2.411-.916,4.231,3.423a12.078,12.078,0,0,1,1.422-.579,7.484,7.484,0,0,1,.952-1.856Z"
                  transform="translate(-302.022 -397.103)" fill="#9fa5a9"/>
            <path d="M311.234,411.58a9.944,9.944,0,0,0-5.436-1.519c-.169,0-.759.084-.663.4.362.362,2.483-.9,4.158,3.194a7.632,7.632,0,0,1,1.073-.494,6.027,6.027,0,0,1,.856-1.579h0Zm-2.869-7.389c-.313.084.1.687.169.88v.1c2.182-.386,2.724,1.615.711,1.856.6,1.205,1.748.35,2.579.916.265.181,1.772,1.471,1.507,1.844-.9,1.205-2.049,2.133-2.543,3.616a.482.482,0,0,1-.157.157,13.712,13.712,0,0,0-2.254,1.205c-.506.277-2.049.976-2.194,1.567s-.1,2.857.723,3.049c-.2-2.266,1.772-2.23,3.327-2.411a.265.265,0,0,1,.277.217c.325,2.037,3.062,5.737,4.146,7.666.784,1.41,1.7,2.712,1.109,4.436a.325.325,0,0,1-.241.169c-.892,0-1.422.157-1.567.675h4.592c2-1.205,1.374-4.737.386-7.678a22.142,22.142,0,0,1-.663-11.824c.349-1.362-.157-2.073-.868-3.266a6.256,6.256,0,0,1-1.205-3.375c-.072-.591-.181-1.856-1.121-1.531a24.831,24.831,0,0,1-6.533,1.712h-.193Zm5.689,20.563c-1.41.289-2.411,1.844-2.266,4.038,0,.868-1.507,1.651-2.266,1.832h-4.05c-.434,0-.53-1.205.759-1.567l.482-.108c.82-.518.651-1.579.651-2.411,0-2.555.783-5.653,3.893-6.352a10.849,10.849,0,0,1-1.205-2.712c-1.4.145-2.929.1-2.616,2.085.06.446-1.205.735-1.675-1.085a5.268,5.268,0,0,1-.072-2.3c.217-.844,1.748-1.495,2.411-1.88l.7-.4c-.554-1.374-1.422-2.808-2.724-2.857-.494,0-1.531.1-1.495-.675,0-1.1,1.892-.82,2.531-.771a13.535,13.535,0,0,1,4.424,1.519,18.67,18.67,0,0,0,1.205-1.495,2.821,2.821,0,0,0-1.8-1.4c-1.205,0-1.9,0-2.411-1.362-.2-.615,1.543-.241,1.338-.868s-1.772,0-1.868-.506-.964-1.507.084-1.8a1.205,1.205,0,0,1,.313,0A24.408,24.408,0,0,0,314.777,402c1.748-.627,1.724,1.808,1.88,2.8.277,1.748,1.965,3.013,2.146,4.821a10.593,10.593,0,0,1-.41,2.266,23.167,23.167,0,0,0,.916,10.414c.94,2.808,1.832,6.907-.675,8.3H313.56a.253.253,0,0,1-.253-.253c0-1.205.976-1.4,1.916-1.422.41-1.458-.458-2.676-1.133-3.869l-.181-.325h0Zm-2.772,4.062c-.121-2.242.856-4.074,2.5-4.52-.663-1.073-1.531-2.411-2.266-3.616-2.845.542-3.616,3.315-3.616,5.882,0,1.085.157,2.206-.928,2.869h-.072a1.133,1.133,0,0,0-1.205.687H309.4a2.627,2.627,0,0,0,1.856-1.3h0Z"
                  transform="translate(-302.073 -397.128)" fill="#1a171b"/>
        </g>
        <path d="M327.619,398.916a267.8,267.8,0,0,1-6.328,34.256,1.591,1.591,0,0,1-.711.976,128.624,128.624,0,0,1-18.08,8.715V397.94q12.379,0,24.529.289a.639.639,0,0,1,.627.627h0Z"
              transform="translate(-216.23 -382.805)" fill="none" stroke="#1a171b" stroke-linecap="round"
              stroke-linejoin="round" stroke-width="0.27"/>
        <path d="M281.616,398.916a267.467,267.467,0,0,0,6.328,34.256,1.579,1.579,0,0,0,.711.976,128.551,128.551,0,0,0,18.08,8.715V397.94q-12.379,0-24.529.289a.639.639,0,0,0-.627.627h0Z"
              transform="translate(-220.605 -382.805)" fill="#9fa5a9"/>
        <g transform="translate(60.975 15.134)" clip-path="url(#logo-clip-path-2)">
            <path d="M285.483,398l3.532,6.3-3.532,6.3L282,404.284l3.532-6.3h0Zm0,25.228,3.761,6.3-3.761,6.3L282,429.524l3.532-6.3h0Zm0-12.62,3.532,6.3-3.532,6.3L282,416.9l3.532-6.3h0ZM292.547,398l3.532,6.3-3.532,6.3-3.532-6.3,3.532-6.3Zm0,25.228,3.532,6.3-3.532,6.943-3.315-6.955,3.315-6.3h0Zm0-12.62,3.532,6.3-3.532,6.3-3.532-6.3,3.532-6.3ZM299.61,398l3.532,6.3-3.532,6.3-3.532-6.3,3.532-6.3Zm0,37.848,3.532,6.3-3.532,6.3-3.532-6.3,3.532-6.3Zm0-12.62,3.532,6.3-3.532,6.3-3.532-6.3,3.532-6.3Zm0-12.62,3.532,6.3-3.532,6.3-3.532-6.3,3.532-6.3Zm7.063,25.228,3.532,6.3-3.532,6.3-3.532-6.3,3.532-6.3Zm0-12.62,3.532,6.3-3.532,6.3-3.532-6.3,3.532-6.3Zm0-12.62,3.532,6.3-3.532,6.3-3.532-6.3,3.532-6.3Zm0-12.62,3.532,6.3-3.532,6.3-3.532-6.3,3.532-6.3Z"
                  transform="translate(-281.494 -397.932)" fill="#fff"/>
            <path d="M285.483,398l3.532,6.3-3.532,6.3L282,404.284l3.532-6.3h0Zm0,25.228,3.761,6.3-3.761,6.3L282,429.524l3.532-6.3h0Zm0-12.62,3.532,6.3-3.532,6.3L282,416.9l3.532-6.3h0ZM292.547,398l3.532,6.3-3.532,6.3-3.532-6.3,3.532-6.3Zm0,25.228,3.532,6.3-3.532,6.943-3.315-6.955,3.315-6.3h0Zm0-12.62,3.532,6.3-3.532,6.3-3.532-6.3,3.532-6.3ZM299.61,398l3.532,6.3-3.532,6.3-3.532-6.3,3.532-6.3Zm0,37.848,3.532,6.3-3.532,6.3-3.532-6.3,3.532-6.3Zm0-12.62,3.532,6.3-3.532,6.3-3.532-6.3,3.532-6.3Zm0-12.62,3.532,6.3-3.532,6.3-3.532-6.3,3.532-6.3Zm7.063,25.228,3.532,6.3-3.532,6.3-3.532-6.3,3.532-6.3Zm0-12.62,3.532,6.3-3.532,6.3-3.532-6.3,3.532-6.3Zm0-12.62,3.532,6.3-3.532,6.3-3.532-6.3,3.532-6.3Zm0-12.62,3.532,6.3-3.532,6.3-3.532-6.3,3.532-6.3Z"
                  transform="translate(-281.494 -397.932)" fill="none" stroke="#1a171b" stroke-miterlimit="3.86"
                  stroke-width="0.27"/>
        </g>
        <path d="M281.616,398.916a267.467,267.467,0,0,0,6.328,34.256,1.579,1.579,0,0,0,.711.976,128.551,128.551,0,0,0,18.08,8.715V397.94q-12.379,0-24.529.289a.639.639,0,0,0-.627.627h0Z"
              transform="translate(-220.605 -382.805)" fill="none" stroke="#1a171b" stroke-linecap="round"
              stroke-linejoin="round" stroke-width="0.27"/>
    </g>
</svg>